{"title":"Soldiers of Fortune 2012 BRRip XviD AC3 - TODE","uid":7446671,"size":726418401,"categoryP":"video","categoryS":"movies","magnet":"?xt=urn:btih:b09c1de4eed9a38361b4378c78018378d06ea531&amp;dn=Soldiers+of+Fortune+2012+BRRip+XviD+AC3+-+TODE&amp;tr=udp%3A%2F%2Ftracker.openbittorrent.com%3A80&amp;tr=udp%3A%2F%2Fopen.demonii.com%3A1337&amp;tr=udp%3A%2F%2Ftracker.coppersurfer.tk%3A6969&amp;tr=udp%3A%2F%2Fexodus.desync.com%3A6969","seeders":0,"leechers":2,"uploader":"zingooo","files":-1,"time":1342388147,"description":"\n &lt;a href=&quot; http://www.imdb.com/title/tt1678051/&quot; rel=&quot;nofollow&quot; target=&quot;_NEW&quot;&gt; http://www.imdb.com/title/tt1678051/&lt;/a&gt;\n\n\nPlot:Wealthy thrill-seekers pay huge premiums to have themselves inserted into military adventures, only this time things don't go exactly to plan.\n\n\n\nDirector: \nMaxim Korostyshevsky\n\nWriters: \nRobert Crombie, Alexandre Coscas, and 1 more credit ï¿½ \n\nStars:\nJon Barton, Sean Bean and Elena Beuca \n\nGenres:\nAction | Adventure \n\n\nThanks : NYDIC\n\n\n\nFormat : AVI\nFormat/Info : Audio Video Interleave\nFile size : 691 MiB\nDuration : 1h 33mn\nOverall bit rate : 1 031 Kbps\nWriting application : Lavf54.3.100\n\nVideo\nID : 0\nFormat : MPEG-4 Visual\nFormat profile : Simple@L3\nFormat settings, BVOP : No\nFormat settings, QPel : No\nFormat settings, GMC : No warppoints\nFormat settings, Matrix : Default (H.263)\nCodec ID : XVID\nCodec ID/Hint : XviD\nDuration : 1h 33mn\nBit rate : 956 Kbps\nWidth : 640 pixels\nHeight : 272 pixels\nDisplay aspect ratio : 2.35:1\nFrame rate : 23.976 fps\nColor space : YUV\nChroma subsampling : 4:2:0\nBit depth : 8 bits\nScan type : Progressive\nCompression mode : Lossy\nBits/(Pixel*Frame) : 0.229\nStream size : 641 MiB (93%)\nWriting library : XviD 64\n\nAudio\nID : 1\nFormat : AC-3\nFormat/Info : Audio Coding 3\nMode extension : CM (complete main)\nFormat settings, Endianness : Big\nCodec ID : 2000\nDuration : 1h 33mn\nBit rate mode : Constant\nBit rate : 64.0 Kbps\nChannel(s) : 2 channels\nChannel positions : Front: L R\nSampling rate : 48.0 KHz\nBit depth : 16 bits\nCompression mode : Lossy\nStream size : 42.9 MiB (6%)\nAlignment : Aligned on interleaves\nInterleave, duration : 32 ms (0.77 video frame)\nTitle : final\n &lt;a href=&quot;\nhttp://image.bayimg.com/aaakhaaea.jpg&quot; rel=&quot;nofollow&quot; target=&quot;_NEW&quot;&gt;\nhttp://image.bayimg.com/aaakhaaea.jpg&lt;/a&gt;\n &lt;a href=&quot;\nhttp://image.bayimg.com/aaakiaaea.jpg&quot; rel=&quot;nofollow&quot; target=&quot;_NEW&quot;&gt;\nhttp://image.bayimg.com/aaakiaaea.jpg&lt;/a&gt;\n &lt;a href=&quot;\nhttp://image.bayimg.com/aaakkaaea.jpg&quot; rel=&quot;nofollow&quot; target=&quot;_NEW&quot;&gt;\nhttp://image.bayimg.com/aaakkaaea.jpg&lt;/a&gt;\n &lt;a href=&quot;\nhttp://image.bayimg.com/aaaklaaea.jpg&quot; rel=&quot;nofollow&quot; target=&quot;_NEW&quot;&gt;\nhttp://image.bayimg.com/aaaklaaea.jpg&lt;/a&gt;\n","torrent":{"xt":"urn:btih:b09c1de4eed9a38361b4378c78018378d06ea531","amp;dn":"Soldiers+of+Fortune+2012+BRRip+XviD+AC3+-+TODE","amp;tr":["udp%3A%2F%2Ftracker.openbittorrent.com%3A80","udp%3A%2F%2Fopen.demonii.com%3A1337","udp%3A%2F%2Ftracker.coppersurfer.tk%3A6969","udp%3A%2F%2Fexodus.desync.com%3A6969"],"infoHash":"b09c1de4eed9a38361b4378c78018378d06ea531","infoHashBuffer":{"type":"Buffer","data":[176,156,29,228,238,217,163,131,97,180,55,140,120,1,131,120,208,110,165,49]},"announce":[],"urlList":[]}}